<svg fill="none" height="16" viewBox="0 0 16 16" width="16" xmlns="http://www.w3.org/2000/svg">
  <g id="Icon">
    <path clip-rule="evenodd"
          d="M6.90462 1.21024C7.59879 0.929921 8.40121 0.929921 9.09538 1.21024C9.58223 1.40684 9.92913 1.78077 10.2342 2.20014C10.539 2.61906 10.8727 3.18728 11.2849 3.88924L13.9389 8.40868C14.2798 8.98922 14.56 9.46635 14.7405 9.85967C14.9232 10.258 15.0528 10.6693 14.9788 11.0956C14.8714 11.7148 14.471 12.2583 13.8884 12.6053C13.4937 12.8403 13.0256 12.9234 12.5315 12.9619C12.0422 13 11.4194 13 10.6534 13H5.3466C4.58064 13 3.95782 13 3.46845 12.9619C2.97436 12.9234 2.5063 12.8403 2.11162 12.6053C1.52903 12.2583 1.12862 11.7148 1.02117 11.0956C0.947192 10.6693 1.07679 10.258 1.25954 9.85968C1.43997 9.46637 1.72015 8.98927 2.06107 8.40876L4.71511 3.88923C5.12732 3.18728 5.46098 2.61906 5.76577 2.20014C6.07087 1.78077 6.41777 1.40684 6.90462 1.21024ZM8.4951 2.40712C8.18268 2.28096 7.81732 2.28096 7.5049 2.40712C7.41341 2.44407 7.25744 2.5508 6.99057 2.91762C6.72777 3.27883 6.42559 3.79193 5.99126 4.53153L3.37252 8.99096C3.00988 9.60849 2.76298 10.0304 2.61212 10.3593C2.46052 10.6898 2.45498 10.8276 2.46645 10.8937C2.50821 11.1343 2.66644 11.3604 2.92043 11.5117C3.00479 11.5619 3.17395 11.6215 3.59501 11.6543C4.01344 11.6869 4.57231 11.6875 5.38125 11.6875H10.6187C11.4277 11.6875 11.9866 11.6869 12.405 11.6543C12.8261 11.6215 12.9952 11.5619 13.0796 11.5117C13.3336 11.3604 13.4918 11.1343 13.5336 10.8937C13.545 10.8276 13.5395 10.6898 13.3879 10.3593C13.237 10.0304 12.9901 9.60848 12.6275 8.99096L10.0087 4.53153C9.57441 3.79193 9.27223 3.27883 9.00943 2.91762C8.74256 2.5508 8.58659 2.44407 8.4951 2.40712ZM7.99672 4.93751C8.40063 4.93588 8.72953 5.22837 8.73134 5.59081L8.7454 8.40326C8.74721 8.76569 8.42125 9.06082 8.01734 9.06245C7.61344 9.06407 7.28454 8.77158 7.28272 8.40915L7.26866 5.59669C7.26685 5.23426 7.59281 4.93913 7.99672 4.93751ZM8 9.4375C8.40391 9.4375 8.73135 9.73131 8.73135 10.0938V10.0994C8.73135 10.4618 8.40391 10.7556 8 10.7556C7.59609 10.7556 7.26865 10.4618 7.26865 10.0994V10.0938C7.26865 9.73131 7.59609 9.4375 8 9.4375Z"
          fill="#232522"
          fill-rule="evenodd"
          id="Icon_2"/>
  </g>
</svg>
