<svg fill="none" height="16" viewBox="0 0 16 16" width="16" xmlns="http://www.w3.org/2000/svg">
  <g id="Icon">
    <path clip-rule="evenodd"
          d="M8 15C11.866 15 15 11.866 15 8C15 4.13401 11.866 1 8 1C4.13401 1 1 4.13401 1 8C1 11.866 4.13401 15 8 15ZM2.3474 8.8998C2.30111 8.60667 2.27707 8.30614 2.27707 8C2.27707 5.40984 3.99779 3.22158 6.35847 2.51598C6.26194 3.03305 6.04076 3.43653 5.8134 3.85126C5.77175 3.92726 5.72985 4.00368 5.6885 4.08122C5.52926 4.37979 5.33523 4.77343 5.33523 5.22088C5.33523 5.71319 5.56243 6.1442 5.95911 6.54089C6.39503 6.97681 6.48462 7.32541 6.58586 7.71932C6.60013 7.77487 6.61464 7.83131 6.63038 7.88903C6.69603 8.12975 6.80049 8.45612 7.07772 8.73336C7.35511 9.01075 7.73094 9.16788 8.19338 9.26037C9.63183 9.54806 10.0809 10.0847 10.2945 10.5119C10.3133 10.5496 10.3487 10.6776 10.3681 10.9487C10.386 11.2001 10.3864 11.494 10.3864 11.8182V11.8315C10.3864 12.1401 10.3864 12.4771 10.4079 12.7783C10.4167 12.9013 10.4298 13.036 10.4532 13.172C9.87338 13.4475 9.23992 13.6283 8.57274 13.6946C8.50926 13.4052 8.39159 13.1358 8.1909 12.8682C7.88725 12.4633 7.40878 12.0907 6.79091 11.6273C6.62556 11.5033 6.58062 11.3881 6.56562 11.2512C6.54524 11.0651 6.58231 10.8534 6.64114 10.5232L6.64481 10.5026C6.69381 10.2281 6.7676 9.81487 6.6738 9.42181C6.55836 8.93804 6.22467 8.57722 5.69089 8.3637C4.68875 7.96284 3.60187 8.30037 2.88081 8.62859C2.68695 8.71683 2.50733 8.81004 2.3474 8.8998ZM2.70231 10.1688C3.45973 12.017 5.15621 13.381 7.19831 13.6672C7.02913 13.4235 6.71551 13.1616 6.02727 12.6455C5.55625 12.2922 5.35039 11.8456 5.30046 11.3898C5.2592 11.0131 5.32819 10.6316 5.37699 10.3619L5.38814 10.2999C5.44647 9.97251 5.4598 9.81765 5.43583 9.71723L5.43496 9.713C5.43032 9.68912 5.41791 9.62528 5.2182 9.5454C4.72676 9.34881 4.06364 9.48855 3.40809 9.78695C3.13321 9.91208 2.88908 10.0517 2.70231 10.1688ZM8 2.27707C7.88897 2.27707 7.77868 2.28024 7.66922 2.28647C7.59415 3.26849 7.19968 3.97873 6.92244 4.47788C6.88261 4.5496 6.84519 4.61696 6.8115 4.68015C6.65255 4.97816 6.60795 5.12145 6.60795 5.22088C6.60795 5.27544 6.61939 5.40125 6.85907 5.64093C7.54994 6.3318 7.7146 6.98662 7.82099 7.40971C7.834 7.46144 7.84614 7.50971 7.85826 7.55415C7.91193 7.75093 7.94667 7.8024 7.97768 7.8334C8.00853 7.86425 8.10997 7.94576 8.44298 8.01236C10.1864 8.36103 11.01 9.09708 11.4328 9.94268C11.573 10.2231 11.6172 10.5724 11.6376 10.8581C11.6591 11.1593 11.6591 11.4963 11.6591 11.8049V11.8182C11.6591 12.0242 11.6592 12.2181 11.6639 12.3965C12.9222 11.3467 13.7229 9.76686 13.7229 8C13.7229 7.91482 13.7211 7.83008 13.7174 7.74581C13.2522 7.75896 12.8882 7.57644 12.6013 7.43261C12.1452 7.20415 11.6996 7.04545 11.1818 7.04545C10.7035 7.04545 10.2978 6.95 9.97401 6.71617C9.65058 6.48258 9.4944 6.17105 9.39779 5.92952C9.3427 5.7918 9.30171 5.67743 9.26702 5.58064C9.16409 5.29341 9.11652 5.16067 8.91974 5.02949C8.58404 4.80569 8.32346 4.49505 8.28584 4.06872C8.25367 3.70408 8.40493 3.38082 8.50468 3.18132C8.54847 3.09374 8.59129 3.01198 8.63183 2.93454C8.74348 2.72133 8.83894 2.53903 8.89644 2.34687C8.60437 2.30093 8.30497 2.27707 8 2.27707ZM13.5091 6.44471C13.4176 6.41458 13.3031 6.36053 13.1369 6.27741L13.1337 6.27581C12.7137 6.0658 12.1275 5.77273 11.1818 5.77273C10.8647 5.77273 10.7534 5.70909 10.7192 5.6844C10.6847 5.65946 10.642 5.61304 10.5795 5.45684C10.5645 5.41945 10.5481 5.37003 10.5287 5.3117C10.419 4.98159 10.2132 4.36217 9.62572 3.97051C9.53239 3.90829 9.59659 3.84342 9.64305 3.7505C9.66531 3.70597 9.69311 3.65446 9.72442 3.59645C9.84318 3.3764 10.0124 3.06287 10.121 2.68299C11.7598 3.33728 13.0252 4.72724 13.5091 6.44471Z"
          fill="#264308"
          fill-rule="evenodd"
          id="Icon_2"/>
  </g>
</svg>
