<svg fill="none" height="63" viewBox="0 0 149 63" width="149" xmlns="http://www.w3.org/2000/svg">
  <g clip-path="url(#clip0_1_3152)">
    <path
      d="M33.3544 0C32.2659 0 31.3208 0.385625 30.5465 1.142C29.8153 1.8563 29.4453 2.73621 29.4453 3.75224C29.4453 4.81044 29.837 5.7143 30.6142 6.42897C31.3458 7.1883 32.271 7.57079 33.3544 7.57079C34.3945 7.57079 35.2951 7.20942 36.0264 6.49512C36.8006 5.73875 37.1955 4.81552 37.1955 3.75224C37.1955 2.73032 36.7981 1.851 36.0266 1.1418C35.3006 0.388062 34.4005 0 33.3544 0Z"
      fill="#232522"/>
    <path d="M46.8694 0.795776H40.5452V36.2208H46.8694V0.795776Z" fill="#232522"/>
    <path clip-rule="evenodd"
          d="M0 2.7854H13.4135C18.1099 2.7854 21.4787 3.7583 23.3069 5.87691C24.8783 7.60031 25.6729 9.59556 25.6729 11.8432C25.6729 14.5165 24.8179 16.5851 23.0303 17.9434L23.0231 17.9488C22.676 18.2031 22.2355 18.4678 21.7062 18.7435C23.2691 19.2727 24.5564 20.1104 25.5496 21.2656C26.8608 22.7383 27.5058 24.5609 27.5058 26.6988C27.5058 29.4001 26.4981 31.6778 24.4923 33.4981C22.4953 35.352 19.3021 36.2208 15.0428 36.2208H0V2.7854ZM6.66379 8.83084V16.2483H13.2098C15.2045 16.2483 16.6099 15.9152 17.5037 15.3234C18.3618 14.7553 18.8054 13.911 18.8054 12.7053C18.8054 11.2661 18.3489 10.3457 17.5365 9.80461L17.5141 9.78968C16.6986 9.18272 15.3218 8.83084 13.2777 8.83084H6.66379ZM6.66379 22.2937V30.1754H14.9071C17.0403 30.1754 18.5236 29.847 19.4397 29.2662C20.2922 28.6837 20.7741 27.6776 20.7741 26.1019C20.7741 24.8257 20.2665 23.9152 19.2509 23.295C18.1948 22.6502 16.5447 22.2937 14.2282 22.2937H6.66379Z"
          fill="#232522"
          fill-rule="evenodd"/>
    <path
      d="M65.1939 10.1469C63.3794 10.1469 61.6612 10.6144 60.0469 11.5415C58.9724 12.1462 58.0529 12.9146 57.29 13.8436V10.5448H50.9656V36.2208H57.29V22.3216C57.29 20.2115 57.9129 18.658 59.0949 17.5829L59.1018 17.5766C60.3114 16.4355 61.8098 15.8607 63.6323 15.8607C65.4478 15.8607 66.7251 16.3933 67.5636 17.3857C68.4176 18.3967 68.8885 19.9686 68.8885 22.1889V36.2208H75.2808V20.5974C75.2808 17.3266 74.3954 14.7305 72.5549 12.8851C70.7198 11.0452 68.2455 10.1469 65.1939 10.1469Z"
      fill="#232522"/>
    <path clip-rule="evenodd"
          d="M81.2694 13.8025C83.8567 11.3668 86.9955 10.1469 90.6556 10.1469C94.2979 10.1469 97.3673 11.2225 99.8263 13.3936C102.301 15.5782 103.526 18.4835 103.526 22.0565V26.1402H83.7679C84.0057 27.5081 84.7421 28.6366 86.0044 29.5434C87.449 30.5811 89.1283 31.1038 91.063 31.1038C94.1647 31.1038 96.3952 30.1703 97.8566 28.3755L98.2313 27.9154L102.019 31.9443L101.687 32.2847C98.8626 35.1815 95.1689 36.6187 90.6556 36.6187C86.9086 36.6187 83.7443 35.401 81.198 32.9598C78.6405 30.5077 77.3779 27.276 77.3779 23.3164C77.3779 19.4388 78.6676 16.2516 81.2694 13.8025ZM90.7915 15.5954C88.8676 15.5954 87.1947 16.1559 85.7509 17.2748C84.5139 18.2648 83.8412 19.5042 83.7216 21.0233H97.1863C97.0849 19.3971 96.4817 18.1353 95.404 17.1913L95.3973 17.1855C94.2418 16.1373 92.7228 15.5954 90.7915 15.5954Z"
          fill="#232522"
          fill-rule="evenodd"/>
    <path d="M36.4487 10.5448H30.1243V36.2209H36.4487V10.5448Z" fill="#232522"/>
    <path
      d="M102.783 10.5448H110.56L115.722 18.2336L121.076 10.5448H128.666L119.41 23.1072L119.401 23.0993L115.417 28.3728L115.421 28.3982L109.803 36.2209H102.302L111.692 23.1159L102.783 10.5448Z"
      fill="#232522"/>
    <path d="M117.823 31.5963L121.22 36.2209H129.003L121.765 26.3435L117.823 31.5963Z" fill="#232522"/>
    <path
      d="M136.845 28.0876C136.845 25.8405 138.659 24.0188 140.897 24.0188H144.948C147.186 24.0188 149 25.8405 149 28.0876V32.1562C149 34.4034 147.186 36.225 144.948 36.225H140.897C138.659 36.225 136.845 34.4034 136.845 32.1562V28.0876Z"
      fill="#A8F367"/>
    <path
      d="M45.4841 61.1457V52.3688H48.5373C49.4936 52.3688 50.2374 52.6036 50.7687 53.0734C51.3083 53.5349 51.578 54.1735 51.578 54.9894C51.578 55.5251 51.4555 55.9907 51.2102 56.3864C50.9732 56.7819 50.6258 57.0869 50.168 57.3011C49.7185 57.5072 49.1748 57.6102 48.5373 57.6102H46.3179V61.1457H45.4841ZM46.3179 56.7943H48.5373C49.2483 56.7943 49.7838 56.6417 50.1435 56.337C50.5113 56.032 50.6952 55.5828 50.6952 54.9894C50.6952 54.396 50.5113 53.9469 50.1435 53.642C49.7838 53.337 49.2483 53.1846 48.5373 53.1846H46.3179V56.7943Z"
      fill="#5C6058"/>
    <path
      d="M55.2977 61.294C54.7092 61.294 54.1942 61.1539 53.7528 60.8737C53.3196 60.5934 52.9845 60.1979 52.7473 59.687C52.5103 59.1678 52.3918 58.562 52.3918 57.8698C52.3918 57.1691 52.5103 56.5635 52.7473 56.0525C52.9845 55.5416 53.3196 55.146 53.7528 54.8657C54.1942 54.5855 54.7092 54.4456 55.2977 54.4456C55.8863 54.4456 56.3972 54.5855 56.8305 54.8657C57.2638 55.146 57.5988 55.5416 57.8358 56.0525C58.0729 56.5635 58.1915 57.1691 58.1915 57.8698C58.1915 58.562 58.0729 59.1678 57.8358 59.687C57.5988 60.1979 57.2638 60.5934 56.8305 60.8737C56.3972 61.1539 55.8863 61.294 55.2977 61.294ZM55.2977 60.5152C55.9353 60.5152 56.4341 60.2803 56.7936 59.8106C57.1614 59.3326 57.3453 58.6857 57.3453 57.8698C57.3453 57.0538 57.1614 56.411 56.7936 55.9412C56.4341 55.4632 55.9353 55.2242 55.2977 55.2242C54.6602 55.2242 54.1575 55.4632 53.7895 55.9412C53.4217 56.411 53.2378 57.0538 53.2378 57.8698C53.2378 58.6857 53.4217 59.3326 53.7895 59.8106C54.1575 60.2803 54.6602 60.5152 55.2977 60.5152Z"
      fill="#5C6058"/>
    <path
      d="M60.8274 61.1457L58.7551 54.5939H59.6379L61.3177 60.2928L62.973 54.5939H63.8313L65.4866 60.2928L67.1787 54.5939H68.0615L65.9895 61.1457H64.9839L63.4022 55.8301L61.8328 61.1457H60.8274Z"
      fill="#5C6058"/>
    <path
      d="M71.5349 61.294C70.9138 61.294 70.3864 61.1497 69.9533 60.8613C69.5201 60.5646 69.1848 60.1608 68.9478 59.6498C68.719 59.1306 68.6045 58.5372 68.6045 57.8698C68.6045 57.2022 68.719 56.613 68.9478 56.1021C69.1768 55.5827 69.5036 55.1789 69.9288 54.8905C70.3619 54.5938 70.8811 54.4456 71.4859 54.4456C72.0664 54.4456 72.5691 54.5855 72.9941 54.8657C73.4191 55.146 73.7421 55.5416 73.9628 56.0525C74.1916 56.5635 74.3061 57.1611 74.3061 57.845V58.1047H69.4505C69.4832 58.8794 69.6836 59.4767 70.0514 59.897C70.4192 60.3091 70.9138 60.5152 71.5349 60.5152C72.0091 60.5152 72.3973 60.3998 72.6998 60.1691C73.0023 59.9384 73.2107 59.6334 73.325 59.2542L74.1957 59.316C74.0322 59.8929 73.7175 60.3668 73.2515 60.7377C72.7857 61.1086 72.2134 61.294 71.5349 61.294ZM69.4505 57.3753H73.4233C73.3823 56.6748 73.1904 56.1432 72.8469 55.7806C72.5036 55.4097 72.0499 55.2242 71.4859 55.2242C70.9218 55.2242 70.4601 55.4097 70.1004 55.7806C69.7408 56.1515 69.5242 56.683 69.4505 57.3753Z"
      fill="#5C6058"/>
    <path
      d="M75.7515 61.1457V54.5939H76.4504L76.4994 56.3864L76.389 56.3246C76.4953 55.7395 76.6874 55.3068 76.9652 55.0266C77.2432 54.7382 77.6275 54.5939 78.1178 54.5939H78.6819V55.3851H78.0933C77.7663 55.3851 77.4885 55.4591 77.2595 55.6076C77.0307 55.7478 76.855 55.9496 76.7323 56.2134C76.6178 56.477 76.5608 56.7902 76.5608 57.1529V61.1457H75.7515Z"
      fill="#5C6058"/>
    <path
      d="M82.2517 61.294C81.6304 61.294 81.1032 61.1497 80.6699 60.8613C80.2367 60.5646 79.9016 60.1608 79.6646 59.6498C79.4356 59.1306 79.3213 58.5372 79.3213 57.8698C79.3213 57.2022 79.4356 56.613 79.6646 56.1021C79.8934 55.5827 80.2204 55.1789 80.6454 54.8905C81.0787 54.5938 81.5979 54.4456 82.2027 54.4456C82.783 54.4456 83.2857 54.5855 83.7107 54.8657C84.1359 55.146 84.4586 55.5416 84.6794 56.0525C84.9084 56.5635 85.0227 57.1611 85.0227 57.845V58.1047H80.1673C80.2 58.8794 80.4002 59.4767 80.7682 59.897C81.136 60.3091 81.6304 60.5152 82.2517 60.5152C82.7257 60.5152 83.1141 60.3998 83.4164 60.1691C83.7189 59.9384 83.9273 59.6334 84.0418 59.2542L84.9125 59.316C84.749 59.8929 84.4341 60.3668 83.9683 60.7377C83.5023 61.1086 82.9302 61.294 82.2517 61.294ZM80.1673 57.3753H84.1399C84.0991 56.6748 83.907 56.1432 83.5637 55.7806C83.2204 55.4097 82.7667 55.2242 82.2027 55.2242C81.6386 55.2242 81.1767 55.4097 80.8172 55.7806C80.4574 56.1515 80.2408 56.683 80.1673 57.3753Z"
      fill="#5C6058"/>
    <path
      d="M88.761 61.2941C88.1969 61.2941 87.7105 61.1539 87.3017 60.8738C86.8932 60.5934 86.5783 60.1979 86.3578 59.687C86.137 59.1759 86.0266 58.5703 86.0266 57.8699C86.0266 57.1692 86.137 56.5636 86.3578 56.0525C86.5783 55.5416 86.8932 55.1461 87.3017 54.8657C87.7105 54.5856 88.1969 54.4456 88.761 54.4456C89.235 54.4456 89.6559 54.5651 90.0237 54.8041C90.3998 55.0349 90.6736 55.3479 90.8454 55.7436V52.3688H91.6545V61.1457H90.9434L90.9066 59.9219C90.7268 60.3505 90.4407 60.6883 90.0484 60.9356C89.6642 61.1746 89.235 61.2941 88.761 61.2941ZM88.8958 60.5153C89.3044 60.5153 89.6518 60.4082 89.9381 60.1938C90.2323 59.9713 90.457 59.6622 90.6123 59.2667C90.7678 58.8629 90.8454 58.3973 90.8454 57.8699C90.8454 57.3424 90.7678 56.8808 90.6123 56.4852C90.457 56.0897 90.2323 55.7806 89.9381 55.5581C89.6518 55.3357 89.3044 55.2242 88.8958 55.2242C88.2828 55.2242 87.7923 55.4633 87.4245 55.9413C87.0565 56.411 86.8726 57.0538 86.8726 57.8699C86.8726 58.6774 87.0565 59.3202 87.4245 59.7982C87.7923 60.2763 88.2828 60.5153 88.8958 60.5153Z"
      fill="#5C6058"/>
    <path
      d="M99.5866 61.2941C99.0963 61.2941 98.6671 61.1705 98.2991 60.9232C97.9313 60.6676 97.6575 60.3381 97.4777 59.9343L97.441 61.1457H96.7297V52.3688H97.539V55.7436C97.7025 55.3892 97.9641 55.0843 98.3238 54.8287C98.6834 54.5732 99.1043 54.4456 99.5866 54.4456C100.151 54.4456 100.637 54.5856 101.046 54.8657C101.463 55.1461 101.786 55.5416 102.015 56.0525C102.243 56.5636 102.358 57.1692 102.358 57.8699C102.358 58.5703 102.243 59.1759 102.015 59.687C101.786 60.1979 101.463 60.5934 101.046 60.8738C100.637 61.1539 100.151 61.2941 99.5866 61.2941ZM99.55 60.5153C100.147 60.5153 100.621 60.2804 100.972 59.8106C101.324 59.3326 101.499 58.6857 101.499 57.8699C101.499 57.0538 101.324 56.411 100.972 55.9413C100.621 55.4633 100.151 55.2242 99.5621 55.2242C99.1453 55.2242 98.7855 55.3357 98.4832 55.5581C98.1807 55.7723 97.9478 56.0773 97.7843 56.4728C97.6208 56.8685 97.539 57.3342 97.539 57.8699C97.539 58.3973 97.6208 58.8629 97.7843 59.2667C97.9478 59.6622 98.1766 59.9713 98.4709 60.1938C98.7734 60.4082 99.1329 60.5153 99.55 60.5153Z"
      fill="#5C6058"/>
    <path
      d="M103.835 63V62.2706H104.497C104.767 62.2706 104.963 62.2253 105.086 62.1346C105.217 62.0523 105.323 61.9038 105.405 61.6896L105.65 61.022H105.356L102.916 54.5939H103.798L105.895 60.2928L107.894 54.5939H108.777L106.104 61.9615C105.973 62.3242 105.789 62.588 105.552 62.7528C105.323 62.9175 104.992 63 104.558 63H103.835Z"
      fill="#5C6058"/>
    <path
      d="M113.269 61.1457V52.3688H118.627V53.1846H113.723L114.103 52.7891V56.8932L113.723 56.4234H118.407V57.2271H113.723L114.103 56.8189V61.1457H113.269Z"
      fill="#5C6058"/>
    <path d="M120.007 61.1456V54.5938H120.817V61.1456H120.007ZM119.983 53.5059V52.4058H120.841V53.5059H119.983Z"
          fill="#5C6058"/>
    <path
      d="M122.929 61.1456V54.5938H123.665L123.702 56.3121L123.603 56.2379C123.669 55.8341 123.804 55.5004 124.008 55.2366C124.221 54.973 124.478 54.7751 124.78 54.6432C125.083 54.5113 125.41 54.4456 125.762 54.4456C126.26 54.4456 126.669 54.5568 126.988 54.7793C127.314 55.0017 127.556 55.3026 127.711 55.6817C127.866 56.0525 127.944 56.4686 127.944 56.9303V61.1456H127.135V57.227C127.135 56.7984 127.082 56.4316 126.975 56.1267C126.877 55.8217 126.714 55.5868 126.485 55.4221C126.256 55.2573 125.958 55.1748 125.59 55.1748C125.034 55.1748 124.584 55.3561 124.241 55.7187C123.906 56.0814 123.738 56.584 123.738 57.227V61.1456H122.929Z"
      fill="#5C6058"/>
    <path
      d="M132.695 61.2941C132.205 61.2941 131.775 61.1705 131.407 60.9232C131.04 60.6676 130.766 60.3381 130.586 59.9343L130.549 61.1457H129.838V52.3688H130.647V55.7436C130.811 55.3892 131.072 55.0843 131.432 54.8287C131.792 54.5732 132.213 54.4456 132.695 54.4456C133.259 54.4456 133.745 54.5856 134.154 54.8657C134.571 55.1461 134.894 55.5416 135.123 56.0525C135.352 56.5636 135.466 57.1692 135.466 57.8699C135.466 58.5703 135.352 59.1759 135.123 59.687C134.894 60.1979 134.571 60.5934 134.154 60.8738C133.745 61.1539 133.259 61.2941 132.695 61.2941ZM132.658 60.5153C133.255 60.5153 133.729 60.2804 134.08 59.8106C134.432 59.3326 134.608 58.6857 134.608 57.8699C134.608 57.0538 134.432 56.411 134.08 55.9413C133.729 55.4633 133.259 55.2242 132.67 55.2242C132.254 55.2242 131.894 55.3357 131.591 55.5581C131.289 55.7723 131.056 56.0773 130.893 56.4728C130.729 56.8685 130.647 57.3342 130.647 57.8699C130.647 58.3973 130.729 58.8629 130.893 59.2667C131.056 59.6622 131.285 59.9713 131.579 60.1938C131.882 60.4082 132.241 60.5153 132.658 60.5153Z"
      fill="#5C6058"/>
    <path d="M136.915 61.1456V54.5938H137.724V61.1456H136.915ZM136.89 53.5059V52.4058H137.749V53.5059H136.89Z"
          fill="#5C6058"/>
    <path
      d="M141.53 61.1456C140.999 61.1456 140.606 61.0219 140.353 60.7747C140.099 60.5193 139.973 60.1319 139.973 59.6127V53.0609H140.782V59.5881C140.782 59.8929 140.847 60.1073 140.978 60.2309C141.117 60.3545 141.326 60.4162 141.604 60.4162H142.462V61.1456H141.53ZM138.955 55.3232V54.5938H142.462V55.3232H138.955Z"
      fill="#5C6058"/>
    <path
      d="M146.229 61.294C145.608 61.294 145.08 61.1497 144.647 60.8613C144.214 60.5646 143.879 60.1608 143.642 59.6498C143.413 59.1306 143.298 58.5372 143.298 57.8698C143.298 57.2022 143.413 56.613 143.642 56.1021C143.871 55.5827 144.198 55.1789 144.623 54.8905C145.056 54.5938 145.575 54.4456 146.18 54.4456C146.76 54.4456 147.263 54.5855 147.688 54.8657C148.113 55.146 148.436 55.5416 148.657 56.0525C148.885 56.5635 149 57.1611 149 57.845V58.1047H144.145C144.177 58.8794 144.377 59.4767 144.745 59.897C145.113 60.3091 145.608 60.5152 146.229 60.5152C146.703 60.5152 147.091 60.3998 147.394 60.1691C147.696 59.9384 147.905 59.6334 148.019 59.2542L148.89 59.316C148.726 59.8929 148.411 60.3668 147.945 60.7377C147.48 61.1086 146.907 61.294 146.229 61.294ZM144.145 57.3753H148.117C148.076 56.6748 147.884 56.1432 147.541 55.7806C147.197 55.4097 146.744 55.2242 146.18 55.2242C145.616 55.2242 145.154 55.4097 144.794 55.7806C144.435 56.1515 144.218 56.683 144.145 57.3753Z"
      fill="#5C6058"/>
  </g>
  <defs>
    <clipPath id="clip0_1_3152">
      <rect fill="white" height="63" width="149"/>
    </clipPath>
  </defs>
</svg>
